PathFileType	4	(X/Y/Z) abd_0kg_2.trc																										
DataRate	CameraRate	NumFrames	NumMarkers	Units	OrigDataRate	OrigDataStartFrame	OrigNumFrames																					
100	100	24	9	mm	100	1	846																					
Frame#	Time	gu			centelbow			EpL			centpxt8			centijc7			ij			ts			aa			ai		
		X1	Y1	Z1	X2	Y2	Z2	X3	Y3	Z3	X4	Y4	Z4	X5	Y5	Z5	X6	Y6	Z6	X7	Y7	Z7	X8	Y8	Z8	X9	Y9	Z9  
0	0	-96.891	-8.83	166.61	-135.362	-251.83	187.942	-133.986	-245.222	219.468	-46.816	-153.158	-8.669	-46.816	31.938	-8.669	0	0	0	-134.154	27.071	40.981	-128.534	27.562	160.115	-148.983	-85.29	47.361
1	0.01	-97.063	-8.718	166.541	-135.594	-251.709	187.881	-134.242	-245.096	219.406	-46.816	-153.158	-8.669	-46.816	31.938	-8.669	0	0	0	-134.217	27.072	41.002	-128.614	27.569	160.137	-149.051	-85.288	47.386
2	0.02	-97.241	-8.6	166.531	-135.825	-251.581	187.884	-134.498	-244.962	219.41	-46.816	-153.158	-8.669	-46.816	31.938	-8.669	0	0	0	-134.267	27.056	41.038	-128.685	27.558	160.174	-149.108	-85.303	47.425
3	0.03	-97.369	-8.507	166.568	-136.002	-251.478	187.941	-134.701	-244.853	219.466	-46.816	-153.158	-8.669	-46.816	31.938	-8.669	0	0	0	-134.278	27.01	41.077	-128.715	27.512	160.214	-149.127	-85.349	47.462
4	0.04	-97.449	-8.464	166.571	-136.165	-251.421	187.959	-134.882	-244.791	219.484	-46.816	-153.158	-8.669	-46.816	31.938	-8.669	0	0	0	-134.262	26.986	41.089	-128.716	27.486	160.227	-149.116	-85.371	47.47
5	0.05	-97.505	-8.492	166.553	-136.354	-251.428	187.939	-135.082	-244.797	219.464	-46.816	-153.158	-8.669	-46.816	31.938	-8.669	0	0	0	-134.248	27.041	41.076	-128.713	27.541	160.215	-149.106	-85.317	47.456
6	0.06	-97.514	-8.58	166.577	-136.506	-251.494	187.955	-135.239	-244.863	219.48	-46.816	-153.158	-8.669	-46.816	31.938	-8.669	0	0	0	-134.252	27.117	41.062	-128.72	27.621	160.2	-149.113	-85.239	47.444
7	0.07	-97.477	-8.672	166.628	-136.572	-251.569	188.004	-135.309	-244.938	219.529	-46.816	-153.158	-8.669	-46.816	31.938	-8.669	0	0	0	-134.258	27.101	41.079	-128.73	27.61	160.217	-149.126	-85.255	47.466
8	0.08	-97.445	-8.726	166.66	-136.609	-251.612	188.035	-135.349	-244.981	219.561	-46.816	-153.158	-8.669	-46.816	31.938	-8.669	0	0	0	-134.301	27.003	41.14	-128.79	27.517	160.28	-149.18	-85.351	47.531
9	0.09	-97.442	-8.749	166.669	-136.665	-251.627	188.027	-135.412	-244.997	219.554	-46.816	-153.158	-8.669	-46.816	31.938	-8.669	0	0	0	-134.444	26.953	41.191	-128.959	27.471	160.331	-149.333	-85.399	47.582
10	0.1	-97.433	-8.793	166.642	-136.721	-251.663	187.97	-135.476	-245.036	219.497	-46.816	-153.158	-8.669	-46.816	31.938	-8.669	0	0	0	-134.598	26.982	41.162	-129.133	27.501	160.303	-149.489	-85.37	47.552
11	0.11	-97.384	-8.865	166.573	-136.739	-251.727	187.874	-135.5	-245.102	219.402	-46.816	-153.158	-8.669	-46.816	31.938	-8.669	0	0	0	-134.611	27.002	41.082	-129.154	27.523	160.223	-149.508	-85.349	47.473
12	0.12	-97.307	-8.887	166.54	-136.721	-251.741	187.824	-135.489	-245.117	219.353	-46.816	-153.158	-8.669	-46.816	31.938	-8.669	0	0	0	-134.51	26.987	41.043	-129.056	27.51	160.185	-149.424	-85.363	47.437
13	0.13	-97.253	-8.815	166.591	-136.709	-251.662	187.866	-135.487	-245.038	219.395	-46.816	-153.158	-8.669	-46.816	31.938	-8.669	0	0	0	-134.388	26.978	41.066	-128.939	27.503	160.208	-149.322	-85.368	47.461
14	0.14	-97.248	-8.709	166.649	-136.737	-251.551	187.921	-135.525	-244.926	219.449	-46.816	-153.158	-8.669	-46.816	31.938	-8.669	0	0	0	-134.273	27.002	41.087	-128.833	27.527	160.23	-149.223	-85.342	47.482
15	0.15	-97.267	-8.642	166.657	-136.802	-251.477	187.923	-135.6	-244.851	219.452	-46.816	-153.158	-8.669	-46.816	31.938	-8.669	0	0	0	-134.206	27.041	41.072	-128.775	27.565	160.214	-149.167	-85.302	47.466
16	0.16	-97.29	-8.627	166.64	-136.898	-251.453	187.881	-135.706	-244.828	219.41	-46.816	-153.158	-8.669	-46.816	31.938	-8.669	0	0	0	-134.213	27.068	41.028	-128.791	27.59	160.172	-149.188	-85.274	47.42
17	0.17	-97.314	-8.642	166.609	-137.005	-251.458	187.804	-135.824	-244.838	219.335	-46.816	-153.158	-8.669	-46.816	31.938	-8.669	0	0	0	-134.263	27.076	40.964	-128.85	27.59	160.107	-149.253	-85.264	47.347
18	0.18	-97.325	-8.681	166.563	-137.085	-251.49	187.71	-135.914	-244.874	219.242	-46.816	-153.158	-8.669	-46.816	31.938	-8.669	0	0	0	-134.324	27.063	40.903	-128.923	27.562	160.048	-149.329	-85.276	47.272
19	0.19	-97.309	-8.735	166.516	-137.124	-251.537	187.637	-135.965	-244.922	219.17	-46.816	-153.158	-8.669	-46.816	31.938	-8.669	0	0	0	-134.372	27.033	40.891	-128.987	27.521	160.036	-149.388	-85.305	47.248
20	0.2	-97.293	-8.758	166.484	-137.161	-251.552	187.604	-136.017	-244.936	219.137	-46.816	-153.158	-8.669	-46.816	31.938	-8.669	0	0	0	-134.382	27.037	40.926	-129.019	27.526	160.072	-149.398	-85.301	47.281
21	0.21	-97.33	-8.739	166.478	-137.25	-251.524	187.602	-136.121	-244.905	219.135	-46.816	-153.158	-8.669	-46.816	31.938	-8.669	0	0	0	-134.398	27.1	40.96	-129.067	27.596	160.107	-149.405	-85.239	47.316
22	0.22	-97.392	-8.75	166.496	-137.367	-251.526	187.614	-136.257	-244.904	219.147	-46.816	-153.158	-8.669	-46.816	31.938	-8.669	0	0	0	-134.454	27.141	40.976	-129.164	27.64	160.125	-149.46	-85.198	47.329
23	0.23	-97.391	-8.827	166.518	-137.436	-251.593	187.62	-136.352	-244.969	219.154	-46.816	-153.158	-8.669	-46.816	31.938	-8.669	0	0	0	-134.472	27.098	41.008	-129.226	27.595	160.159	-149.496	-85.24	47.355
